<svg xmlns="http://www.w3.org/2000/svg" xmlns:xlink="http://www.w3.org/1999/xlink" viewBox="0 0 10.07 330.87"><defs><style>.cls-1{fill:#efc71c;}.cls-2{fill:#dec76a;}.cls-3{fill:url(#Degradado_sin_nombre_4);}</style><linearGradient id="Degradado_sin_nombre_4" x1="5" y1="-34.41" x2="5" y2="73" gradientUnits="userSpaceOnUse"><stop offset="0" stop-color="#fff"/><stop offset="0.13" stop-color="#fff" stop-opacity="0.98"/><stop offset="0.27" stop-color="#fff" stop-opacity="0.93"/><stop offset="0.41" stop-color="#fff" stop-opacity="0.85"/><stop offset="0.56" stop-color="#fff" stop-opacity="0.73"/><stop offset="0.71" stop-color="#fff" stop-opacity="0.58"/><stop offset="0.86" stop-color="#fff" stop-opacity="0.4"/><stop offset="1" stop-color="#fff" stop-opacity="0.2"/></linearGradient></defs><g id="Capa_2" data-name="Capa 2"><g id="Capa_1-2" data-name="Capa 1"><path class="cls-1" d="M10,5V325.87a5,5,0,0,1-10,0V5A5,5,0,0,1,5,0a5,5,0,0,1,5,5Z"/><path class="cls-2" d="M10,224.29A37.32,37.32,0,0,1,0,249.77v-51A37.32,37.32,0,0,1,10,224.29Z"/><path class="cls-2" d="M10,152.57a7.58,7.58,0,0,1-2.22,4.06c-2.34,2.34-5.48,3-7,1.45A2.75,2.75,0,0,1,0,156.59v-1.47a7.58,7.58,0,0,1,2.22-4.06c2.34-2.33,5.48-3,7-1.45a2.78,2.78,0,0,1,.76,1.48A4.09,4.09,0,0,1,10,152.57Z"/><path class="cls-2" d="M10,57.36v9.11C7.76,66,4.74,64.08,2,61.3A25.79,25.79,0,0,1,0,59.13V50a17.55,17.55,0,0,1,7.08,4.25c.33.3.65.6,1,.92A25.79,25.79,0,0,1,10,57.36Z"/><path class="cls-2" d="M8.18,113.84A5.12,5.12,0,0,1,3.06,119a5,5,0,0,1-3.06-1v-8.2a5,5,0,0,1,3.06-1A5.12,5.12,0,0,1,8.18,113.84Z"/><path class="cls-2" d="M10,267.05v44.28a29.51,29.51,0,0,1,0-44.28Z"/><path class="cls-3" d="M10,5V37.82H0V5A5,5,0,0,1,5,0a5,5,0,0,1,5,5Z"/></g></g></svg>